<?xml version="1.0" standalone="no"?>
<!DOCTYPE svg PUBLIC "-//W3C//DTD SVG 20010904//EN"
 "http://www.w3.org/TR/2001/REC-SVG-20010904/DTD/svg10.dtd">
<svg version="1.0" xmlns="http://www.w3.org/2000/svg"
 width="712.000000pt" height="712.000000pt" viewBox="0 0 712.000000 712.000000"
 preserveAspectRatio="xMidYMid meet">
<metadata>
Created by potrace 1.11, written by Peter Selinger 2001-2013
</metadata>
<g transform="translate(0.000000,712.000000) scale(0.100000,-0.100000)"
fill="#000000" stroke="none">
<path d="M3630 7069 c-25 -5 -145 -12 -267 -15 l-223 -7 0 -32 c0 -25 -5 -34
-22 -39 -35 -9 -50 -7 -42 5 8 14 -19 6 -106 -31 -36 -15 -83 -33 -105 -40
-65 -20 -308 -122 -335 -140 -44 -31 -129 -70 -150 -70 -12 0 -19 -4 -15 -10
8 -13 -38 -34 -120 -54 -151 -37 -145 -34 -145 -66 0 -15 5 -30 11 -32 7 -2 0
-12 -14 -21 -25 -16 -28 -16 -72 3 -69 30 -85 26 -50 -10 16 -16 36 -30 44
-30 18 0 -118 -89 -136 -90 -7 0 -13 -4 -13 -8 0 -5 -15 -17 -33 -27 -31 -16
-35 -16 -65 -1 -17 9 -39 16 -49 16 -14 -1 -11 -7 14 -28 l32 -28 -32 -19
c-24 -14 -29 -15 -19 -3 11 13 5 16 -44 22 -30 3 -59 4 -63 2 -4 -3 -14 -30
-21 -61 -14 -59 -34 -74 -82 -60 -21 5 -22 5 -6 -8 16 -13 11 -17 -55 -46
-177 -79 -160 -74 -216 -62 -100 21 -137 6 -49 -21 l42 -12 -40 -18 c-25 -11
-64 -18 -112 -18 -46 0 -71 -4 -67 -10 3 -5 15 -10 26 -10 32 0 22 -16 -21
-33 -34 -13 -40 -13 -40 -1 0 16 -21 19 -36 5 -5 -5 -20 -11 -34 -13 l-25 -5
25 -10 c24 -10 23 -11 -32 -38 l-57 -28 2 -121 c1 -96 -2 -121 -14 -124 -8 -3
-35 -26 -61 -51 -62 -62 -69 -104 -39 -255 26 -126 26 -126 51 -126 31 0 68
-55 81 -120 11 -56 14 -60 39 -60 l27 0 6 -97 c4 -54 7 -125 7 -158 0 -88 7
-108 37 -100 23 5 24 5 7 -20 -14 -21 -14 -30 -4 -55 7 -17 21 -35 31 -41 11
-5 19 -19 19 -30 0 -17 -5 -15 -35 17 -19 20 -38 34 -41 31 -14 -14 9 -81 40
-115 38 -42 63 -112 44 -123 -9 -6 -9 -17 1 -48 11 -39 31 -56 31 -28 1 7 6 5
14 -6 8 -10 11 -27 8 -39 -3 -15 -1 -19 9 -16 14 5 99 -123 99 -149 0 -7 5
-35 11 -63 10 -49 29 -60 29 -17 0 14 19 -10 54 -68 l54 -90 -25 -7 c-27 -7
-43 -24 -43 -45 0 -9 16 -13 45 -13 49 0 50 1 34 33 -10 22 -10 22 6 2 9 -11
21 -29 27 -40 10 -17 9 -18 -4 -7 -13 10 -16 8 -22 -19 -9 -47 -7 -89 4 -89
16 0 43 49 37 70 -3 11 -4 20 -2 20 1 0 21 -29 44 -65 29 -47 35 -63 21 -55
-10 5 -22 15 -25 20 -18 29 -26 2 -23 -82 l3 -93 53 -3 52 -3 0 -44 c0 -56 13
-89 47 -121 35 -33 121 -77 133 -69 6 3 15 -5 22 -19 9 -20 8 -49 -2 -126 -18
-145 3 -315 62 -500 102 -319 262 -510 398 -473 33 8 40 7 45 -6 4 -9 52 -149
107 -311 55 -162 118 -334 139 -381 134 -299 330 -570 740 -1029 159 -178 185
-196 319 -225 112 -25 483 -32 617 -11 183 28 201 37 341 183 399 415 622 702
761 978 58 115 92 211 230 651 l51 161 39 -10 c137 -37 296 153 399 473 66
206 87 445 48 558 -32 93 -92 142 -177 142 -23 0 -26 3 -21 25 4 26 10 26 60
8 29 -12 9 9 -23 23 -19 8 -35 21 -35 29 0 12 10 14 55 9 l55 -7 0 32 c0 28 3
31 29 31 28 0 29 2 33 58 2 31 1 59 -3 62 -8 6 70 183 82 188 5 2 9 13 9 25 0
11 7 28 16 38 12 14 16 43 17 126 1 59 -2 119 -7 132 l-8 23 38 -26 c21 -14
42 -26 45 -26 11 0 17 48 7 58 -6 6 -6 24 1 47 12 44 8 55 -20 55 -11 0 -17 5
-14 10 3 6 15 10 27 10 11 0 35 15 53 33 33 33 47 69 60 156 7 41 6 44 -14 38
-14 -3 -19 -1 -14 6 30 49 50 73 59 70 13 -4 60 106 98 224 31 101 63 255 72
349 l7 72 -41 36 c-22 20 -59 69 -83 108 -59 101 -106 147 -222 224 -212 139
-238 174 -247 329 -5 78 -11 111 -30 148 -49 97 -174 183 -303 208 -50 10 -63
18 -95 55 -20 24 -64 60 -99 81 -35 20 -63 40 -63 45 0 4 -5 8 -11 8 -14 0
-94 55 -142 97 -20 18 -45 33 -55 33 -10 0 -27 6 -37 14 -18 13 -18 14 3 25
31 17 28 33 -5 25 -16 -4 -32 -10 -38 -14 -5 -3 -37 4 -70 16 -33 13 -51 23
-39 23 36 1 115 33 111 45 -2 6 -23 22 -47 35 -34 19 -63 26 -129 29 -83 5
-84 4 -78 -18 l6 -22 -27 23 c-15 13 -52 50 -82 82 -56 58 -91 77 -70 37 6
-11 8 -20 4 -20 -10 0 -298 110 -304 116 -3 3 9 2 25 -1 l30 -7 -20 20 c-21
22 -95 57 -95 45 0 -3 7 -14 16 -24 13 -14 2 -13 -69 9 -81 26 -83 27 -44 30
40 3 87 27 87 43 0 5 -26 6 -58 3 l-58 -6 4 35 c4 32 1 36 -25 41 -38 9 -233
-10 -303 -29 -30 -8 -56 -15 -58 -15 -1 0 2 9 8 19 5 11 10 22 10 25 0 8 -56
5 -110 -5z m282 -316 c3 -18 96 -41 171 -42 l38 -1 -16 -29 c-19 -38 -26 -35
185 -56 91 -8 175 -18 188 -20 29 -7 28 -26 -3 -55 -14 -13 -25 -26 -25 -30 0
-3 41 -11 91 -18 106 -14 198 -43 252 -78 22 -14 41 -23 45 -20 3 3 11 -3 19
-14 8 -11 20 -20 28 -20 7 0 17 -17 22 -37 l9 -38 68 3 c66 3 67 3 56 -18 -9
-17 -8 -25 5 -40 15 -16 14 -21 -15 -66 -28 -44 -67 -151 -58 -158 10 -9 200
-67 204 -63 3 3 14 -3 25 -14 10 -10 27 -19 37 -19 10 0 36 -18 57 -40 23 -24
56 -45 80 -52 52 -15 70 -29 70 -53 0 -17 6 -20 43 -19 l42 1 0 -64 0 -63 33
0 c107 0 208 -69 242 -165 l18 -50 86 0 c110 -1 190 -24 231 -68 16 -17 26
-33 21 -35 -5 -1 -3 -30 4 -63 7 -34 9 -62 4 -65 -30 -18 -131 -327 -115 -352
5 -8 42 -17 141 -35 14 -3 4 -11 -37 -30 l-58 -27 0 -112 c0 -77 -3 -108 -10
-98 -5 8 -10 25 -10 38 0 34 -13 27 -64 -37 -76 -95 -141 -131 -233 -131 -52
0 -56 -14 -9 -31 l34 -12 -26 -51 c-15 -28 -27 -52 -28 -54 0 -1 -35 14 -77
33 -51 24 -120 44 -214 62 -89 17 -145 33 -159 45 -11 10 -30 18 -42 18 -11 0
-57 14 -101 32 l-81 31 0 49 c0 35 -4 48 -14 48 -8 0 -16 5 -18 11 -2 6 -41
22 -86 35 -94 27 -164 61 -304 145 -331 200 -803 433 -1050 520 -68 24 -68 24
-68 61 0 26 -4 38 -14 38 -8 0 -16 6 -19 14 -3 8 -27 18 -54 22 -60 8 -104 31
-321 162 -178 107 -344 188 -362 177 -5 -3 -10 -31 -10 -61 0 -48 -2 -55 -17
-50 -21 5 -119 10 -178 8 -39 -2 -41 -4 -57 -50 -40 -111 -140 -179 -254 -169
-34 2 -69 9 -78 14 -12 6 2 8 44 5 34 -3 81 1 108 9 63 18 132 87 154 154 l15
50 122 3 121 3 -6 27 c-10 42 -43 104 -73 136 -24 26 -24 28 -5 22 29 -9 34
12 34 152 0 61 1 112 3 113 1 0 40 6 86 12 47 7 86 17 88 23 2 6 -8 27 -22 48
-43 64 -36 93 44 170 72 69 127 100 196 111 22 3 55 8 73 11 31 5 32 7 32 49
0 44 1 45 33 45 48 0 137 23 324 84 93 30 192 58 221 62 29 3 52 10 52 15 0 4
17 10 38 12 20 2 40 4 44 5 3 1 8 -6 10 -15z m-1322 -744 l0 -30 -87 7 c-57 5
-105 15 -138 30 l-50 23 138 0 137 1 0 -31z m-728 -433 c35 -13 92 -38 128
-55 64 -30 64 -30 29 -31 -20 0 -56 -7 -79 -15 -23 -8 -44 -15 -46 -15 -1 0
-4 21 -6 47 l-3 47 -49 12 c-27 7 -53 17 -59 23 -19 19 18 13 85 -13z m-1065
-48 c-3 -7 -5 -2 -5 12 0 14 2 19 5 13 2 -7 2 -19 0 -25z m1801 -55 c11 -10
23 -28 27 -41 7 -23 6 -23 -23 -8 -27 14 -42 34 -42 57 0 14 16 11 38 -8z
m-793 -53 l-60 -29 120 5 c128 6 231 -5 295 -33 l38 -17 -19 -25 c-11 -13 -16
-28 -12 -32 4 -4 40 -19 78 -34 99 -37 187 -86 407 -228 300 -193 333 -207
553 -233 77 -8 142 -17 144 -20 10 -10 -33 -54 -63 -64 -33 -11 -37 -10 -60
17 -32 37 -42 25 -16 -21 12 -19 20 -40 18 -46 -5 -16 -376 -307 -488 -382
-103 -70 -250 -148 -278 -148 -9 0 -12 6 -7 18 22 58 45 135 41 139 -2 2 -35
-5 -74 -16 -38 -12 -74 -21 -81 -21 -7 0 -11 20 -11 53 l0 52 76 -3 75 -4 -3
33 c-3 32 -4 33 -72 46 -77 14 -188 62 -222 97 -22 22 -23 26 -12 78 25 118
-38 194 -238 290 l-123 59 -43 -28 c-37 -25 -51 -28 -117 -27 -61 0 -90 7
-148 31 -83 36 -113 63 -113 101 0 21 9 33 43 54 23 15 60 45 82 67 33 35 36
41 19 41 -28 0 -105 -50 -155 -102 l-43 -43 31 45 c43 62 80 95 134 119 50 22
109 98 109 139 0 17 8 23 38 28 20 4 50 13 66 22 35 17 127 50 141 51 6 0 -17
-13 -50 -29z m4456 -210 c5 0 9 -11 9 -25 0 -20 -5 -25 -25 -25 -21 0 -25 5
-25 31 0 24 3 30 16 25 9 -3 20 -6 25 -6z m-3613 -33 c51 -18 62 -26 62 -44 0
-27 -16 -29 -67 -8 -42 18 -70 40 -85 69 -9 16 -8 18 8 12 11 -4 47 -17 82
-29z m-1729 -149 c1 -5 -3 -8 -9 -8 -5 0 -10 12 -9 28 0 24 1 25 9 7 5 -11 9
-23 9 -27z m299 -129 c-24 -28 -59 -59 -79 -69 l-36 -19 0 24 c0 18 7 27 31
35 17 6 49 26 71 45 57 49 63 43 13 -16z m195 -70 c-17 -17 -37 -29 -44 -27
-18 6 34 58 58 58 14 0 11 -6 -14 -31z m200 -111 c-14 -29 -28 -54 -29 -56 -1
-2 -26 4 -55 12 -66 20 -71 20 -65 -1 12 -46 17 -135 7 -129 -6 4 -11 26 -11
49 0 23 -4 59 -9 81 -9 38 -9 38 17 32 91 -21 88 -21 114 23 13 23 31 41 41
41 15 0 14 -6 -10 -52z m257 -278 c0 -38 -28 -78 -60 -85 -26 -6 -30 -11 -30
-40 0 -19 -4 -37 -10 -40 -6 -4 -10 13 -10 44 0 47 2 51 28 57 38 9 50 21 57
55 7 33 25 39 25 9z m2060 -26 l35 -14 -54 6 c-30 3 -62 9 -70 14 -27 16 49
10 89 -6z m185 -100 c29 -13 27 -13 -35 -12 -64 2 -65 1 -71 -28 -14 -63 -15
-62 65 -69 126 -12 153 -23 61 -24 -44 0 -103 2 -132 5 -56 7 -55 6 -68 96 -7
45 -6 47 21 51 42 7 124 -3 159 -19z m1545 -69 c0 -22 -4 -25 -40 -25 -36 0
-40 3 -40 25 0 23 4 25 40 25 36 0 40 -2 40 -25z m-3602 -18 c9 -10 4 -16 -23
-26 -19 -7 -39 -20 -45 -30 -5 -10 -18 -21 -30 -24 -16 -4 -18 -2 -10 13 10
19 80 80 91 80 4 0 11 -6 17 -13z m3763 -98 c15 -29 6 -33 -24 -8 -33 25 -38
56 -7 39 11 -6 25 -20 31 -31z"/>
<path d="M4865 6262 c-3 -3 -5 -18 -5 -33 0 -21 6 -28 27 -32 30 -6 43 6 43
39 0 17 -7 23 -30 26 -17 3 -32 2 -35 0z"/>
<path d="M5160 5855 c0 -6 33 -19 73 -29 42 -10 32 12 -10 23 -42 12 -63 14
-63 6z"/>
<path d="M2873 5803 c21 -24 94 -59 104 -49 14 13 -43 57 -83 63 -38 6 -39 6
-21 -14z"/>
<path d="M2728 5773 c7 -3 16 -2 19 1 4 3 -2 6 -13 5 -11 0 -14 -3 -6 -6z"/>
<path d="M5600 5546 c0 -9 5 -16 10 -16 6 0 10 4 10 9 0 6 -4 13 -10 16 -5 3
-10 -1 -10 -9z"/>
<path d="M5970 5355 c0 -45 35 -95 66 -95 2 0 4 27 4 60 l0 60 -35 0 c-31 0
-35 -3 -35 -25z"/>
<path d="M2576 4331 c-4 -7 -5 -15 -2 -18 9 -9 19 4 14 18 -4 11 -6 11 -12 0z"/>
<path d="M5255 6500 c4 -6 11 -8 16 -5 14 9 11 15 -7 15 -8 0 -12 -5 -9 -10z"/>
<path d="M5952 5794 c-7 -22 -15 -56 -19 -75 -6 -30 -5 -33 10 -21 24 20 38
72 28 107 l-8 30 -11 -41z"/>
<path d="M6340 4298 c-22 -49 -27 -132 -8 -126 14 5 88 136 88 156 0 7 -13 12
-30 12 -27 0 -34 -6 -50 -42z"/>
<path d="M1090 4136 c0 -9 5 -16 10 -16 6 0 10 4 10 9 0 6 -4 13 -10 16 -5 3
-10 -1 -10 -9z"/>
<path d="M6110 3933 c0 -25 28 -63 46 -63 13 0 13 3 0 28 -8 16 -22 34 -30 41
-14 11 -16 11 -16 -6z"/>
<path d="M1235 3865 c9 -64 25 -83 25 -29 0 21 -8 48 -16 59 -15 19 -16 17 -9
-30z"/>
</g>
</svg>
