<svg width="219" height="288" xmlns="http://www.w3.org/2000/svg">
 <!-- Created with Method Draw - http://github.com/duopixel/Method-Draw/ -->

 <g>
  <title>background</title>
  <rect fill="none" id="canvas_background" height="290" width="221" y="-1" x="-1"/>
  <g display="none" overflow="visible" y="0" x="0" height="100%" width="100%" id="canvasGrid">
   <rect fill="url(#gridpattern)" stroke-width="0" y="0" x="0" height="100%" width="100%"/>
  </g>
 </g>
 <g>
  <title>Layer 1</title>
  <!-- Created with Method Draw - http://github.com/duopixel/Method-Draw/ -->
  <g stroke="null" transform="matrix(0.9377270643628728,0,0,0.9377270643628728,-4401.64770049313,-3633.271726407981) " id="svg_238">
   <title stroke="null" transform="translate(4.265633583068848,1.066408395767212) translate(-3.1992251873016357,-1.066408395767212) translate(-7.464858531951904,0) translate(-142.8987274169922,-101.30879974365234) translate(-3.1992251873016357,4.265633583068848) translate(2.132816791534424,27.72661781311035) translate(-489.1114501953125,265.0909423828125) translate(5197.52490234375,0) translate(0,3584.5) ">Layer 1</title>
   <g stroke="null" id="svg_119">
    <g stroke="null" id="svg_232" transform="matrix(0.06781683510376357,0,0,0.06781683510376357,0,0) "/>
    <g stroke="null" id="svg_231" transform="matrix(0.06781683510376357,0,0,0.06781683510376357,0,0) "/>
    <g stroke="null" id="svg_230" transform="matrix(0.06781683510376357,0,0,0.06781683510376357,0,0) "/>
    <g stroke="null" id="svg_229" transform="matrix(0.06781683510376357,0,0,0.06781683510376357,0,0) "/>
    <g stroke="null" id="svg_228" transform="matrix(0.06781683510376357,0,0,0.06781683510376357,0,0) "/>
    <g stroke="null" id="svg_227" transform="matrix(0.06781683510376357,0,0,0.06781683510376357,0,0) "/>
    <g stroke="null" id="svg_226" transform="matrix(0.06781683510376357,0,0,0.06781683510376357,0,0) "/>
    <g stroke="null" id="svg_225" transform="matrix(0.06781683510376357,0,0,0.06781683510376357,0,0) "/>
    <g stroke="null" id="svg_224" transform="matrix(0.06781683510376357,0,0,0.06781683510376357,0,0) "/>
    <g stroke="null" id="svg_223" transform="matrix(0.06781683510376357,0,0,0.06781683510376357,0,0) "/>
    <g stroke="null" id="svg_222" transform="matrix(0.06781683510376357,0,0,0.06781683510376357,0,0) "/>
    <g stroke="null" id="svg_221" transform="matrix(0.06781683510376357,0,0,0.06781683510376357,0,0) "/>
    <g stroke="null" id="svg_220" transform="matrix(0.06781683510376357,0,0,0.06781683510376357,0,0) "/>
    <g stroke="null" id="svg_219" transform="matrix(0.06781683510376357,0,0,0.06781683510376357,0,0) "/>
    <g stroke="null" id="svg_218" transform="matrix(0.06781683510376357,0,0,0.06781683510376357,0,0) "/>
    <g stroke="null" id="svg_192">
     <path stroke="null" d="m4809.911436,4180.996534c62.71213,0 113.86068,-51.14855 113.86068,-113.86068c0,-62.71257 -51.14855,-113.86157 -113.86068,-113.86157c-62.71257,0 -113.86157,51.149 -113.86157,113.86157c0,62.71213 51.149,113.86068 113.86157,113.86068z" fill="#364d63" id="svg_217"/>
     <path stroke="null" d="m4795.209116,3993.763774c10.1344,0 20.26712,0 30.4004,0l2.4629,25.62132l7.44022,5.46172l44.26555,14.03147c0,0 5.805,3.19371 7.51134,12.12354c1.70241,8.93039 2.53178,28.67503 3.84891,40.72296c-30.28504,34.70963 -129.10006,34.76339 -161.45432,0.00112c1.31713,-12.04793 2.1437,-31.79369 3.84835,-40.72464c1.7041,-8.92983 7.51134,-12.12354 7.51134,-12.12354l44.56851,-14.22467l7.13726,-5.26572l2.45954,-25.62356l0,0z" fill="#FED198" id="svg_216"/>
     <path stroke="null" d="m4826.947366,4007.675964l0.39088,4.06451c-2.26353,2.63538 -4.59483,5.15372 -6.79789,7.5791c-2.49706,2.7485 -17.94982,2.79778 -20.47264,-0.11144c-2.0597,-2.37722 -4.32324,-4.95268 -6.56269,-7.69278l0.38752,-4.03707c2.11234,2.45114 4.23531,4.76003 6.17517,6.89925c2.52282,2.7793 17.97558,2.73226 20.47264,0.10584c2.07706,-2.18514 4.26667,-4.44699 6.40701,-6.80741l0,0z" fill="#F0B97D" id="svg_215"/>
     <path stroke="null" d="m4785.612316,4024.654174l-44.56963,14.22411c0,0 -5.80556,3.19371 -7.51022,12.12354c-1.70409,8.93039 -2.53178,28.67615 -3.84835,40.72464c32.35426,34.76172 131.16984,34.70852 161.45432,-0.00112c-1.31825,-12.04737 -2.1465,-31.79257 -3.84891,-40.72296c-1.70689,-8.92983 -7.51078,-12.12354 -7.51078,-12.12354l-44.26611,-14.03203c-7.33326,21.50977 -42.90978,20.61265 -49.90031,-0.19264l0,0l-0.00001,0z" fill="#FF5B61" id="svg_214"/>
     <path stroke="null" d="m4772.452216,3954.849624c-9.53407,-1.69065 -1.40617,26.78277 5.55805,22.53794l3.7369,10.97441c3.36675,9.88631 11.85754,18.88783 18.32055,26.01388c2.52282,2.78042 17.97558,2.73338 20.47264,0.1064c7.1563,-7.52534 15.65828,-15.97972 18.85087,-26.17572l3.41994,-10.91897c6.97374,4.24035 15.08484,-24.22691 5.55749,-22.53794c0.6608,-22.16385 -15.01204,-43.6669 -37.9571,-43.76546c-22.94618,0.09856 -38.61959,21.60161 -37.95934,43.76546l0,0z" fill="#FED198" id="svg_213"/>
     <g stroke="null" id="svg_210" transform="matrix(0.560004415416875,0,0,0.560004415416875,-1059.6098537445068,-2095.430951011076) ">
      <path stroke="null" d="m10338.421721,10963.509052c88.601,-11.582 123.861,10.65 143.676,28.152c-29.448,-16.953 -85.965,-15.833 -141.187,-5.966l-2.489,-22.186l0,0z" fill="#FFFFFF" id="svg_212"/>
      <path stroke="null" d="m10625.770721,10963.509052c-88.596,-11.582 -123.857,10.649 -143.672,28.152c35.131,-20.228 101.156,-12.97 141.134,-5.651l2.538,-22.501l0,0z" fill="#FFFFFF" id="svg_211"/>
     </g>
     <path stroke="null" d="m4717.718506,4058.562444c34.9874,-7.97278 74.19778,-10.49056 93.2245,0.46424c19.02895,-10.95424 57.17029,-8.43702 92.15992,-0.46424c-2.00313,68.83406 -0.33208,11.38265 -3.00162,103.25529c-2.05074,-0.38696 -57.34893,-8.61119 -84.0785,-0.5908c-4.45036,-0.0028 -5.48301,-0.0028 -9.95128,0c-29.34647,-8.53559 -83.42722,0.22792 -85.3542,0.5908c-2.75578,-94.85915 -0.9296,-31.94097 -2.99882,-103.25529l0,0z" fill="#d4ed1a" id="svg_209"/>
     <g stroke="null" id="svg_206" transform="matrix(0.560004415416875,0,0,0.560004415416875,-1059.6098537445068,-2095.430951011076) ">
      <path stroke="null" d="m10324.464721,10978.195052l0.951,9.766c60.354,-12.811 125.922,-16.135 158.451,2.594l0,-0.001c-0.114,-0.086 -48.305,-36.323 -159.402,-12.359z" fill="#DFE1E3" id="svg_208"/>
      <path stroke="null" d="m10639.728721,10978.736052l-0.95,9.767c-60.357,-12.811 -125.921,-16.135 -158.452,2.594l-0.001,-0.001c0.115,-0.085 48.308,-36.321 159.403,-12.36l0,0z" fill="#DFE1E3" id="svg_207"/>
     </g>
     <path stroke="null" d="m4736.742976,4086.621464l-9.7452,0.5208l-9.70039,0.68657c-4.01468,0.28672 -3.34435,7.47718 0.65688,7.00453l10.57232,-1.25273l8.03047,-0.67536c4.01411,-0.34048 2.88346,-6.42941 0.18592,-6.28381zm-1.33841,22.36994l0,0l-15.11452,1.76737c-3.24243,0.37688 -2.46178,7.60038 0.65576,7.00229l15.16156,-2.91706c3.16627,-0.60928 2.49594,-6.22613 -0.7028,-5.8526l0,0zm1.92081,-7.84175l0,0c4.01132,-0.37576 4.83004,5.82013 0.83217,6.33085l-19.13647,2.44498c-3.99563,0.51073 -4.66372,-6.62709 -0.65465,-7.00117l18.95895,-1.77466l0,0zm2.67178,-7.82662l0,0c4.69732,-0.4396 5.35197,6.56269 0.65633,7.00286l-22.23889,2.08153c-4.69452,0.43961 -5.34917,-6.56269 -0.65689,-7.00173l22.23946,-2.08266l0,0l-0.00001,0z" fill="#FED198" id="svg_205"/>
     <g stroke="null" id="svg_200" transform="matrix(0.560004415416875,0,0,0.560004415416875,-1059.6098537445068,-2095.430951011076) ">
      <path stroke="null" d="m10348.296721,11042.133052l0.612,6.535l4.359,-0.408c0.732,-2.449 0.423,-4.76 -0.654,-6.99l-4.317,0.863z" fill="#FFFFFF" id="svg_204"/>
      <path stroke="null" d="m10355.783721,11054.284052l0.694,7.421l4.07,-0.382c1.439,-2.804 1.376,-5.468 -0.743,-7.937l-4.021,0.898z" fill="#FFFFFF" id="svg_203"/>
      <path stroke="null" d="m10350.348721,11068.156052l0.612,6.531l4.99,-0.466c0.516,-2.399 0.319,-4.73 -0.655,-6.989l-4.947,0.924z" fill="#FFFFFF" id="svg_202"/>
      <path stroke="null" d="m10346.259721,11082.594052l0.794,5.171l5.004,-0.857c0.454,-1.968 0.191,-3.816 -0.85,-5.532l-4.948,1.218z" fill="#FFFFFF" id="svg_201"/>
     </g>
     <path stroke="null" d="m4884.077336,4086.621464l9.74464,0.5208l9.70039,0.68657c4.0158,0.28672 3.34547,7.47718 -0.65576,7.00453l-10.57344,-1.25273l-8.02879,-0.67536c-4.01579,-0.34048 -2.88346,-6.42941 -0.18704,-6.28381l0,0zm1.33841,22.36994l0,0l15.11564,1.76737c3.24243,0.37688 2.4601,7.60038 -0.65632,7.00229l-15.16044,-2.91706c-3.16795,-0.60928 -2.49818,-6.22613 0.70112,-5.8526l0,0zm-1.92137,-7.84175l0,0c-4.01131,-0.37576 -4.82948,5.82013 -0.83105,6.33085l19.13535,2.44498c3.99563,0.51073 4.66484,-6.62709 0.65577,-7.00117l-18.96007,-1.77466l0,0zm-2.67066,-7.82662l0,0c-4.69732,-0.4396 -5.35253,6.56269 -0.65577,7.00286l22.2389,2.08153c4.69339,0.43961 5.34748,-6.56269 0.65632,-7.00173l-22.23945,-2.08266z" fill="#FED198" id="svg_199"/>
     <g stroke="null" id="svg_194" transform="matrix(0.560004415416875,0,0,0.560004415416875,-1059.6098537445068,-2095.430951011076) ">
      <path stroke="null" d="m10615.896721,11042.133052l-0.613,6.535l-4.357,-0.408c-0.734,-2.449 -0.425,-4.76 0.654,-6.99l4.316,0.863z" fill="#FFFFFF" id="svg_198"/>
      <path stroke="null" d="m10608.410721,11054.284052l-0.695,7.421l-4.07,-0.382c-1.441,-2.804 -1.376,-5.468 0.744,-7.937l4.021,0.898l0,0z" fill="#FFFFFF" id="svg_197"/>
      <path stroke="null" d="m10613.842721,11068.156052l-0.612,6.531l-4.987,-0.466c-0.517,-2.399 -0.319,-4.73 0.653,-6.989l4.946,0.924z" fill="#FFFFFF" id="svg_196"/>
      <path stroke="null" d="m10617.934721,11082.594052l-0.796,5.171l-5.003,-0.857c-0.454,-1.968 -0.191,-3.816 0.85,-5.532l4.949,1.218l0,0z" fill="#FFFFFF" id="svg_195"/>
     </g>
     <path stroke="null" d="m4806.182966,4161.225254l9.84096,0l0,-104.49067l-9.84096,0l0,104.49067z" fill="#b7ba10" id="svg_193"/>
    </g>
    <g transform="rotate(1.9827016592025757 4805.898437499983,3921.1037597656255) " stroke="null" id="svg_120">
     <path transform="rotate(1.9827016592025757 4806.8623046875055,3882.2277832031245) " stroke="null" d="m4797.435463,3881.638694l0,1.17836c3.20043,0 5.76631,0.45656 8.83771,1.17837c-0.38297,-0.76582 -0.08661,-0.58919 -1.17836,-0.58919c3.35361,-0.99117 7.68527,-1.72871 11.19443,-1.76754l0,-1.17836c-2.80744,0.00031 -5.01687,0.23466 -7.65935,1.17836l0.58918,-1.17836c-4.14842,0.85441 -7.5256,1.18961 -11.78361,1.17836z" fill="#c4a644" id="svg_191"/>
     <path transform="rotate(1.9827016592025757 4812.171875000047,3882.1169433593864) " stroke="null" d="m4811.975795,3882.018713c-0.26218,0.26177 0.35999,0.22919 0.39239,0.19643c0.26219,-0.26189 -0.35999,-0.22913 -0.39239,-0.19643z" fill="#f3fafb" id="svg_190"/>
     <path transform="rotate(1.9827016592025757 4799.709960937485,3920.918212890623) " stroke="null" d="m4803.751935,3882.592758c0.38296,0.7657 0.08661,0.58918 1.17836,0.58918c-2.90879,-0.05473 -5.751,-1.02906 -8.73767,-0.43369c-11.08456,2.20943 -20.10256,10.25021 -29.55909,15.95967c-4.84483,2.92511 -10.37618,4.67657 -15.3187,7.45208c0.56549,2.46083 0.19549,4.5899 0,7.07017l-0.58918,-1.17836c-1.51019,3.64108 1.38357,5.29815 2.67723,8.33402c1.21437,2.84969 1.35194,5.97813 2.62539,8.75222c-1.57994,1.04415 -1.57994,1.90176 0,2.94591c-0.41166,4.12839 2.21444,6.85865 4.23928,10.18399c3.71543,6.10274 8.18832,11.85373 11.66861,18.09669c1.95095,-1.08527 3.68768,-1.1707 5.89181,-1.17836c-0.35216,-0.70407 -0.27462,-0.57563 -1.17836,-1.17836l2.9459,0c0,-1.05876 -0.00843,-0.89615 -0.58918,-1.76755c2.08994,-1.15833 3.42473,-2.73733 5.89181,-2.9459c-0.06464,-1.80996 1.30274,-2.17879 2.9459,-2.35672c1.17813,-3.82615 5.46389,-5.74157 7.07017,-9.4269c-1.23139,-0.73117 -1.62525,-0.98157 -1.17836,-2.35672l0,-1.17836l-1.76754,-1.76755c-4.75399,1.95314 -8.74009,4.78415 -12.96198,7.65935l1.17836,-2.35672l-2.35672,-0.58918l0.58918,-2.94591l-4.12427,1.17837c0.67968,-1.32507 1.03172,-1.67681 2.35673,-2.35673c-2.19912,-2.24537 -3.44718,-1.20252 -5.89181,0l0,-2.35672c1.66526,0 1.64411,-0.67261 1.76754,-2.35673c-1.1502,-0.30095 -1.44762,-0.43204 -2.35672,-1.17836l-1.17837,0c-1.41244,0.91759 -2.44333,0.75628 -4.12426,0.58918c-0.05544,-1.29908 -0.20987,-2.29433 -0.58918,-3.53508l2.35672,0.58918l1.17836,-2.35672c-1.86717,0.00471 -3.51098,0.05915 -5.30262,0.58918c0.52985,-1.25119 0.51635,-1.2377 1.76754,-1.76755c-2.46054,-1.4277 -4.72276,0.74361 -7.07017,1.76755c0.99076,-1.67092 2.6608,-2.43285 3.92424,-3.90833c1.79635,-2.09784 2.03615,-4.09522 4.91347,-4.92939c1.30757,-2.65632 3.63265,-4.05056 6.48099,-4.71344l0,-1.76755c-3.29982,-0.41154 -6.19406,-2.17979 -9.42689,-2.9459c5.48869,-0.80028 10.21032,3.72374 15.41008,4.54753c3.21864,0.50988 5.5644,-1.51148 5.80043,-4.54753l4.71345,0c-0.75604,-5.14373 -8.81533,-6.6591 -12.96198,-8.24853c1.60787,-0.47736 3.03457,-0.57693 4.71344,-0.58918l0.58918,-2.94591l1.76755,0c0.4575,1.25596 0.66589,1.6325 1.76754,2.35673c0.03241,-1.78864 0.19514,-3.52943 0,-5.30263c1.5998,0.17952 3.10634,0.09374 4.71345,0c-1.04226,-0.45891 -1.78876,-0.53757 -2.94591,-0.58918c4.29342,-1.64835 8.50642,-3.34502 12.71394,-5.17625c1.65324,-0.71945 3.16272,-1.82458 4.96149,-2.18262c1.83353,-0.36488 3.4526,0.40677 5.2496,0.52873c1.27322,0.08637 2.38972,-0.53663 3.64114,-0.52372c1.77579,0.01838 3.50209,0.98463 5.24901,1.28565c4.01939,0.69258 9.81163,2.22162 11.78421,6.06821c4.82244,0.26495 4.33755,2.55757 3.53508,6.48099c5.12705,1.94371 9.54709,6.79573 15.31871,5.89181c-1.94548,-6.13226 -8.07826,-10.81854 -13.54233,-13.75484c-2.26658,-1.21778 -3.86679,-2.65409 -6.48982,-2.15305c-1.73043,-3.31656 -5.4352,-4.0492 -8.66744,-5.14213c-2.3909,-0.80824 -4.04944,-1.85121 -6.65127,-1.92804l2.35673,-0.58918c-3.52802,-1.477 -8.52486,0.58877 -12.3728,0.58918z" fill="#313641" id="svg_189"/>
     <path transform="rotate(1.9827016592025757 4803.861328125011,3893.324951171877) " stroke="null" d="m4814.72515,3882.130691c1.49004,0.61246 2.46042,0.6441 3.53509,-0.58918l-3.53509,0.58918m-22.38887,2.94591c1.56934,-0.55183 2.57755,-0.99807 3.53508,-2.35673c-1.71546,0.46563 -2.54096,0.88366 -3.53508,2.35673m25.92396,-2.35673c0.77418,0.95324 1.10589,0.99766 2.35672,1.17837c-0.90911,-0.74632 -1.20664,-0.87747 -2.35672,-1.17837m7.07017,2.35673c0.6369,1.24953 1.10707,1.71964 2.35672,2.35672c-0.6369,-1.24953 -1.10707,-1.71964 -2.35672,-2.35672m-37.70758,0.58918l0.58918,0.58918l-0.58918,-0.58918m0,7.07017c1.04232,0.45891 1.7887,0.53757 2.94591,0.58918c-1.63233,0.53032 -3.00147,0.70855 -4.71345,0.58918l0,5.30263c-0.84465,-0.82049 -1.20482,-1.31552 -1.76754,-2.35672l-1.76755,0c-0.41213,1.15379 -0.55341,1.73778 -0.58918,2.9459l-4.71344,0c2.49417,2.6218 6.66281,1.76754 10.01607,1.76754l0,1.17836l-4.12427,0c1.81786,1.17742 3.73965,2.06555 5.89181,2.35673c0.14235,-1.86205 0.3964,-3.47475 0,-5.30263l3.53509,-0.58918c-0.23903,-1.23286 -0.12762,-1.18997 -1.17836,-1.76754l0,-1.17837c2.61024,-2.10844 3.32156,-3.61651 7.07017,-4.12426l0,-1.76754c4.26272,-0.13611 8.31334,-2.44098 12.37279,-3.53509c-7.22748,-3.84258 -15.78303,4.82056 -22.97805,5.89181m24.7456,-7.07017l0,1.76754l4.12426,0l-0.58918,1.17836l8.24853,0.58918c-0.69876,0.69895 -0.90026,0.93315 -1.17836,1.76755c2.60183,0.16544 5.58956,0.75615 7.65935,2.35672c0.54264,-2.52753 -2.13106,-3.21958 -4.11542,-3.97379c-4.4383,-1.68653 -9.33204,-3.54628 -14.14918,-3.68556m-25.53115,0.78556c-0.2619,0.26183 0.36004,0.22913 0.39274,0.19643c0.26189,-0.26183 -0.35999,-0.22919 -0.39274,-0.19643z" fill="#c4a644" id="svg_188"/>
     <path transform="rotate(1.9827016592025757 4826.435058593732,3887.327148437509) " stroke="null" d="m4826.140621,3887.032382l0.58918,0.58918l-0.58918,-0.58918z" fill="#f3fafb" id="svg_187"/>
     <path transform="rotate(1.9827016592025757 4786.0800781249745,3886.5195312500077) " stroke="null" d="m4785.883721,3886.421252c-0.26183,0.26184 0.36005,0.22914 0.39275,0.19644c0.26189,-0.26189 -0.36005,-0.22914 -0.39275,-0.19644z" fill="#c4a644" id="svg_186"/>
     <path transform="rotate(1.9827016592025757 4823.2431640625355,3911.412597656241) " stroke="null" d="m4797.613901,3891.06062l0,1.76755c-3.81459,0.31202 -4.79258,1.38752 -7.07018,4.12427l0,1.17836c0.70419,0.72045 0.77561,0.83663 1.17837,1.76754l-3.53509,0.58918c0.18442,1.64918 -0.36346,4.0961 0.6078,5.51633c0.97775,1.42958 3.20514,2.14037 4.69483,2.87585c3.54528,1.75039 7.24339,4.60079 11.19444,5.15898l0,1.76754c6.48452,1.68188 13.29604,5.06967 19.29803,8.10943c3.58221,1.81432 7.24398,4.55207 11.33937,4.85255l0,2.35673c2.25185,0.31179 3.87681,1.42923 5.99197,2.01258c2.85576,0.78762 5.28672,0.96484 8.14837,2.11168c0.403,-0.93084 0.47429,-1.04715 1.17836,-1.76754c-0.73529,-0.40347 -0.91205,-0.44118 -1.76754,-0.58918c3.37424,-1.01216 4.96856,-0.91765 5.89181,-4.71345l0.58918,2.35672c0.71468,-1.70255 0.58801,-3.4609 0.58918,-5.30262l2.35673,-0.58918c-1.14361,-0.56026 -2.29663,-0.84807 -3.53509,-1.17836c1.09647,-2.2809 1.08645,-5.10791 2.35672,-7.07018c-1.07289,-3.32286 -3.54628,-5.6245 -7.07016,-4.12426c-0.46781,-3.19254 -2.73969,-4.73307 -5.89181,-4.12427l0,-2.35672c-3.88094,-1.40284 -7.11907,-3.83851 -11.19444,-4.71345c0.38591,-1.49457 0.75179,-2.38436 1.76754,-3.53509c-0.46604,-1.03754 -0.56679,-0.91052 0,-1.76754c-1.14477,-0.36635 -1.73749,-0.25676 -2.9459,0c-1.67858,-3.33458 -5.9413,-4.02345 -9.4269,-4.12426c0.69877,-0.69895 0.90027,-0.9332 1.17836,-1.76754l-8.24853,-0.58919l0.58919,-1.17836c-2.23948,-0.04625 -4.77296,-0.84883 -6.97001,-0.40459c-3.80553,0.7693 -7.38008,3.06692 -11.2946,3.35049z" fill="#f3fafb" id="svg_185"/>
     <path transform="rotate(1.9827016592025757 4807.81689453125,3888.716552734364) " stroke="null" d="m4829.027296,3887.567422l1.17836,2.35673c1.50713,-0.26855 2.73498,-0.54435 4.12427,-1.17837c-1.64558,-1.49675 -3.13975,-1.24623 -5.30263,-1.17836m-46.74166,1.37474c-0.26183,0.26183 0.36005,0.22913 0.39275,0.19643c0.26189,-0.26189 -0.36005,-0.22913 -0.39275,-0.19643m-0.98199,0.3928l0.58918,0.58919l-0.58918,-0.58919z" fill="#c4a644" id="svg_184"/>
     <path transform="rotate(1.9827016592025757 4799.541503906286,3889.3435058593855) " stroke="null" d="m4798.363252,3889.049018c0.8873,0.40241 1.36383,0.48661 2.35672,0.58918c-0.8873,-0.40241 -1.36383,-0.4866 -2.35672,-0.58918z" fill="#f3fafb" id="svg_183"/>
     <path transform="rotate(1.9827016592025757 4810.146972656255,3915.060791015641) " stroke="null" d="m4776.269331,3891.198903l0,1.17836c1.97022,-0.29884 2.8557,-0.82409 4.12426,-2.35673l-4.12426,1.17837m56.56136,0c0.93091,-0.40277 1.04697,-0.47418 1.76754,-1.17837c-1.23256,0.23904 -1.19014,0.12768 -1.76754,1.17837m5.10643,-0.39281c-0.26218,0.26195 0.35999,0.22907 0.3924,0.19643c0.26218,-0.26177 -0.35999,-0.22919 -0.3924,-0.19643m-3.92807,0.39281c0.85903,0.63696 1.32448,0.84606 2.35673,1.17836c-0.77419,-0.95324 -1.1059,-0.99766 -2.35673,-1.17836m-60.68563,1.17836c0.91571,1.23722 1.40096,1.25672 2.94591,1.17836c-0.99761,-0.62589 -1.79135,-0.89532 -2.94591,-1.17836m57.73973,1.17836l0.58918,1.76754l2.9459,-0.58918c-0.85726,0.98953 -1.1601,1.14478 0,1.76754c-1.09587,1.35536 -1.49475,2.40209 -1.76754,4.12427l4.12426,1.17836c-0.86256,-1.15927 -1.5354,-1.38575 -2.9459,-1.76754c1.14655,-3.67454 1.65972,-6.22582 -2.9459,-6.48099m7.46315,0.19637c-0.26218,0.26195 0.35999,0.22914 0.3924,0.19644c0.26218,-0.26178 -0.35999,-0.22919 -0.3924,-0.19644m0.78538,0.39281l0.58918,0.58918l-0.58918,-0.58918m-66.57744,0.58918l0.58918,0.58918l-0.58918,-0.58918m67.16662,0c0.79009,0.75068 1.4158,1.20234 2.35672,1.76754c-0.72233,-1.1988 -1.00337,-1.37072 -2.35672,-1.76754m-67.95218,0.78556c-0.26189,0.26189 0.36005,0.22913 0.39275,0.19643c0.26189,-0.26189 -0.36005,-0.22913 -0.39275,-0.19643m-3.33871,0.3928c0.90911,0.74632 1.20653,0.87747 2.35673,1.17837c-0.77419,-0.95324 -1.10607,-0.99766 -2.35673,-1.17837m61.86399,0l0,1.17837l1.17837,0l0,-1.17837l-1.17837,0m-63.63153,1.17837l-0.58918,2.35672c1.38882,-0.65016 1.98913,-1.15273 2.9459,-2.35672l-2.35672,0m76.00433,0c2.41506,2.65614 4.82539,5.65649 6.48099,8.83771c-1.90953,0.12002 -3.45731,-0.09221 -5.30263,-0.58918l0,2.35672c3.039,-0.17557 5.11468,1.14278 5.89181,4.12427c3.11618,-0.72852 6.84629,0.3994 8.83772,2.9459l-2.35673,-1.17836l0.58918,2.35672c-1.41285,1.28218 -1.69566,5.07291 -2.35672,7.07017c1.24082,0.37932 2.23594,0.53374 3.53509,0.58919c-0.89379,0.56402 -1.3781,0.81731 -2.35673,1.17836l0,5.30263l-0.58918,-2.35673c-2.12753,2.78188 -2.69904,4.07949 -6.48099,4.12427c0.7353,0.40347 0.91205,0.44118 1.76754,0.58918c-0.76416,0.93939 -0.90439,1.18914 -1.17836,2.35672c-3.35656,-1.88496 -5.81168,-1.65076 -9.42689,-2.35672c3.67708,3.43669 10.03905,5.83701 14.72952,7.65935l-1.17836,-2.9459l4.12426,2.35672l0,-1.17836c-1.52185,0 -1.579,-1.07172 -2.35672,-2.35673c3.47793,0.45191 4.04944,-1.61877 4.12426,-4.71344l-2.9459,1.76754c0.2669,-2.10821 0.97922,-3.75261 0.58918,-5.89181c2.09218,-0.61204 2.21061,-2.0801 2.35673,-4.12427c0.80482,2.31195 0.59035,4.63326 0.58918,7.07018c1.82822,-3.80364 2.76502,-8.74857 2.9459,-12.96198c-2.2271,-1.19781 -2.51639,-3.31621 -4.28806,-4.97623c-2.26186,-2.11957 -5.29968,-2.68324 -7.13733,-5.38128c-1.04521,-1.53511 -0.34409,-2.64495 -0.75533,-4.25654c-0.91088,-3.57361 -4.542,-5.20511 -7.85143,-5.4181m-78.36106,2.35672c0.73554,0.40347 0.91229,0.44118 1.76755,0.58918c-0.73548,-0.40347 -0.91229,-0.44118 -1.76755,-0.58918m-0.58918,0.58918l0.58918,0.58918l-0.58918,-0.58918m-1.96391,1.37474c-0.26189,0.26189 0.36004,0.22913 0.39274,0.19643c0.2619,-0.26189 -0.36004,-0.22913 -0.39274,-0.19643m-4.51708,0.3928c1.27387,0.73866 2.05188,0.72146 3.53509,0.58919c-1.20906,-0.51507 -2.20778,-0.56138 -3.53509,-0.58919z" fill="#c4a644" id="svg_182"/>
     <path transform="rotate(1.9827016592025757 4784.382324218788,3901.4938964843764) " stroke="null" d="m4782.025914,3900.904626c1.50825,1.14407 2.83267,1.15774 4.71345,1.17836l0,-1.17836l-4.71345,0z" fill="#f3fafb" id="svg_181"/>
     <path transform="rotate(1.9827016592025757 4802.993652343783,3903.906738281245) " stroke="null" d="m4837.336584,3901.549979c0.73529,0.40347 0.91205,0.44118 1.76754,0.58918c-0.7353,-0.40347 -0.91205,-0.44118 -1.76754,-0.58918m1.76754,0.58918c0.90675,1.28389 1.38752,1.5162 2.9459,1.76755c-0.94976,-0.77401 -1.81762,-1.28872 -2.9459,-1.76755m-83.66369,1.17836c1.31936,0.47771 2.14875,0.31156 3.53509,0c-1.27469,-0.39805 -2.19859,-0.22801 -3.53509,0m81.30697,0c0.8873,0.40242 1.36395,0.48661 2.35672,0.58919c-0.88731,-0.40242 -1.36395,-0.48661 -2.35672,-0.58919m15.90788,0l-0.58918,2.94591c0.86904,-1.14018 1.05522,-1.58649 0.58918,-2.94591m-97.80403,0.58919c-0.8711,0.58075 -0.7089,0.58918 -1.76754,0.58918c0.89703,0.50381 2.32414,0.7591 1.76754,-0.58918m87.78796,0l0,1.17836l1.17836,0c-0.32111,-0.96337 -0.21505,-0.85726 -1.17836,-1.17836z" fill="#c4a644" id="svg_180"/>
     <path transform="rotate(1.9827016592025757 4850.554687500001,3905.847900390615) " stroke="null" d="m4850.25988,3905.553372l0.58918,0.58918l-0.58918,-0.58918z" fill="#313641" id="svg_179"/>
     <path transform="rotate(1.9827016592025757 4801.49707031248,3928.079833984377) " stroke="null" d="m4851.282821,3904.512538l0.58918,0.58918l-0.58918,-0.58918m-60.09645,1.17836c0.90917,0.74632 1.20653,0.87741 2.35673,1.17836c-0.78603,-1.12079 -0.97999,-1.15856 -2.35673,-1.17836m-38.68956,0.39281c-0.0327,0.0327 -0.06546,0.65464 0.19643,0.39275c0.0327,-0.0327 0.06546,-0.65464 -0.19643,-0.39275m36.13646,0.39275c-0.26189,0.26189 0.36005,0.22913 0.39275,0.19643c0.26189,-0.26189 -0.36004,-0.22913 -0.39275,-0.19643m-37.5112,0.39281l0.58918,4.71344c0.75121,-1.80849 0.58518,-3.16343 -0.58918,-4.71345m38.29676,0l0,2.35673c-1.65301,-0.23715 -3.06044,-0.23715 -4.71345,0c-0.40977,2.5825 -2.40827,4.67486 -5.27305,4.48249c-1.66514,-0.11177 -2.95527,-1.23015 -4.69895,-1.01063c-2.06803,0.26042 -3.99948,1.70156 -5.93588,2.41995c2.86359,0.88076 6.94185,0 10.01607,0c-0.61015,0.69894 -0.78867,0.94481 -1.17836,1.76754c6.08011,1.6447 10.69788,6.27967 16.5498,8.41174c2.42006,0.8817 5.62402,0.69016 8.1958,1.01515c-1.285,1.05252 -1.93016,0.99902 -3.53509,0.58919c0.38969,0.82273 0.56821,1.06859 1.17837,1.76754c-3.37065,1.92538 -5.62739,4.59443 -8.5304,7.04071c-1.99544,1.68152 -4.55083,2.81923 -6.78831,4.15373c0.61452,-1.23434 0.94434,-2.17938 1.17837,-3.53509c-1.37268,0.18559 -2.30818,0.53144 -3.53509,1.17836l0,-2.35672l2.9459,0l0,-1.17836c-2.50407,-0.2269 -4.31575,-1.12092 -6.48099,-2.35673c3.00259,-4.59272 -4.66195,-6.89176 -7.65935,-8.24853c-2.60341,2.44805 -4.66489,1.06294 -7.65935,0l0,-1.17836c2.84769,-1.23557 3.95382,-2.80403 4.12427,-5.89181c-0.74632,0.90911 -0.87741,1.20652 -1.17836,2.35672c-3.9005,0.62165 -5.68554,5.86448 -8.83772,8.24854c2.41948,0.39386 4.57417,-1.58902 7.07018,-1.76755c-1.21743,0.78886 -1.48745,0.9632 -1.76755,2.35673c1.79082,-0.42675 3.46338,-0.57375 5.30263,-0.58918c-0.56402,0.89361 -0.81731,1.3778 -1.17836,2.35672l-2.35673,-0.58918l0.58919,3.53508c1.6814,0.29731 2.93394,0.72281 4.12426,-0.58918l1.17836,0c0.77419,0.95324 1.10601,0.99766 2.35673,1.17837c-0.23662,1.42605 -0.29713,2.14131 -1.76755,2.35672l0,2.35672c1.39283,-0.28398 1.48327,-0.37472 1.76755,-1.76754c1.75428,0.25453 2.6856,0.72175 4.12426,1.76754c-1.54748,0.49433 -1.86257,0.80954 -2.35672,2.35673l4.12427,-1.17836l-0.58919,2.9459l2.35673,0.58918c-0.56402,0.89379 -0.81731,1.37751 -1.17836,2.35672c4.4489,-2.06743 8.67704,-5.2113 12.96198,-7.65935c0.58988,1.13359 0.63484,1.2361 1.76754,1.76755l0,1.17836l-1.17836,0c0.5715,1.46824 0.86904,1.85356 2.35672,2.35672c-2.04776,3.18335 -6.41983,5.61254 -7.07017,9.4269l3.53508,-2.35673c0.90723,1.0623 1.5304,1.07938 2.94591,1.17836l-1.76754,-2.35672c3.24114,-0.54558 7.12555,-4.07065 10.01607,-5.89181l-1.17836,-1.76754c1.43406,-0.38356 1.93428,-0.68345 2.9459,-1.76754c-1.58784,0.49785 -3.0602,0.97627 -4.71344,1.17836c0.38296,0.76593 0.08661,0.58918 1.17836,0.58918c-2.31631,0.06893 -3.9689,-1.68447 -6.48099,-1.76754c-0.06917,-1.60847 -0.29412,-3.13091 -0.58918,-4.71345c1.35358,-0.39687 1.63444,-0.56874 2.35672,-1.76754c2.3169,1.18826 3.19277,2.74428 3.53509,5.30262c2.79743,-0.54558 5.4888,0.21918 8.24853,-0.58918l0.58918,0.58918l-0.58918,2.35673c0.77418,-0.45249 0.72587,-0.40418 1.17836,-1.17836l1.17836,0c1.58784,1.67091 4.85191,0.4625 7.07017,0.62158c4.15019,0.29695 7.45019,2.87462 11.78362,2.9135c0.7023,2.4015 3.703,2.70434 5.89181,3.53509c0.99336,-0.68051 1.71452,-0.60863 2.9459,-0.58919c-1.39812,0.59626 -2.62126,0.95566 -4.12426,1.17837c2.05153,0.86079 4.23444,0.33583 6.38083,0.85784c2.68666,0.65282 5.26433,2.1134 7.75951,3.26642c-0.86728,-1.65854 -1.69566,-2.08805 -3.53509,-2.35672l0,-2.35673c-3.83026,-0.24863 -6.25003,-2.28071 -9.42689,-4.12426c1.22196,-1.9172 0.27986,-3.19749 0,-5.30263c-1.14831,-0.55147 -1.50241,-0.82014 -2.35672,-1.76754l4.12426,0c0.81425,-1.426 1.39224,-1.80343 2.94591,-2.35673c-1.5248,-0.81171 -2.99304,-1.03772 -4.71345,-1.17836l0,-2.35672c-3.64173,-0.53032 -7.14735,-2.85482 -10.35309,-4.59255c-2.89523,-1.56958 -6.05324,-2.58344 -9.03685,-3.9501c-3.58812,-1.64341 -7.31763,-3.83422 -11.24747,-4.41933l0,-1.76754c-5.43407,-1.33362 -9.88286,-5.50419 -15.3187,-7.07018z" fill="#c4a644" id="svg_178"/>
     <path transform="rotate(1.9827016592025757 4848.991210937535,3908.4467773437527) " stroke="null" d="m4848.401481,3907.857555l0,1.17836c0.96331,-0.3211 0.85726,-0.21499 1.17836,-1.17836l-1.17836,0z" fill="#313641" id="svg_177"/>
     <path transform="rotate(1.9827016592025757 4760.940429687496,3905.988281250003) " stroke="null" d="m4758.878334,3905.398906c1.31564,0.59472 2.71282,0.82792 4.12426,1.17836c-1.35971,-1.03666 -2.41116,-1.12958 -4.12426,-1.17836z" fill="#c4a644" id="svg_176"/>
     <path transform="rotate(1.9827016592025757 4761.813476562511,3906.312988281246) " stroke="null" d="m4761.617148,3906.214857c-0.26183,0.26184 0.36005,0.22914 0.39275,0.19644c0.26189,-0.26189 -0.36005,-0.22913 -0.39275,-0.19644z" fill="#f3fafb" id="svg_175"/>
     <path transform="rotate(1.9827016592025757 4804.639160156276,3909.8588867187445) " stroke="null" d="m4763.48403,3908.091468c2.08628,1.55473 4.77271,2.25197 7.07017,3.53509c0,-1.91449 2.11916,-0.29807 3.53508,0c-2.69179,-2.14303 -7.19985,-3.2359 -10.60525,-3.53509m82.09234,0.98199c-0.03241,0.0327 -0.0654,0.65464 0.19678,0.39275c0.03241,-0.0327 0.0654,-0.65464 -0.19678,-0.39275z" fill="#c4a644" id="svg_174"/>
     <path transform="rotate(1.9827016592025757 4768.209472656271,3908.892578125003) " stroke="null" d="m4768.012722,3908.79442c-0.26183,0.26183 0.36005,0.22913 0.39275,0.19643c0.26189,-0.26189 -0.36005,-0.22913 -0.39275,-0.19643z" fill="#f3fafb" id="svg_173"/>
     <path transform="rotate(1.9827016592025757 4795.579589843763,3910.135009765617) " stroke="null" d="m4793.517275,3909.545731c1.35977,1.03666 2.41111,1.12957 4.12427,1.17836c-1.34522,-0.71969 -2.60878,-0.97339 -4.12427,-1.17836z" fill="#313641" id="svg_172"/>
     <path transform="rotate(1.9827016592025757 4771.416992187531,3909.8879394531177) " stroke="null" d="m4769.944125,3909.298806c1.05375,0.83752 1.59414,1.00007 2.9459,1.17836c-1.03136,-0.73937 -1.68347,-0.95076 -2.9459,-1.17836z" fill="#f3fafb" id="svg_171"/>
     <path transform="rotate(1.9827016592025757 4751.574707031226,3915.0964355468977) " stroke="null" d="m4750.309074,3917.453129c1.68606,0 2.18568,1.95272 2.35672,3.53508l1.17836,0c-0.12461,-4.10824 -3.41024,-6.39985 -3.53508,-10.60525l0.58918,1.17836c0.40241,-0.88731 0.4866,-1.36384 0.58918,-2.35672c-3.53102,1.94706 -1.88285,5.08781 -1.17836,8.24853z" fill="#c4a644" id="svg_170"/>
     <path transform="rotate(1.9827016592025757 4855.609374999981,3913.097412109385) " stroke="null" d="m4854.725529,3912.802772c0.7353,0.40347 0.91205,0.44118 1.76754,0.58918c-0.73529,-0.40347 -0.91205,-0.44118 -1.76754,-0.58918z" fill="#313641" id="svg_169"/>
     <path transform="rotate(1.9827016592025757 4780.187988281254,3911.9602050781086) " stroke="null" d="m4772.82358,3910.781862c0.88736,0.40241 1.36384,0.4866 2.35672,0.58918c-0.88736,-0.40241 -1.36383,-0.48661 -2.35672,-0.58918m12.96198,0.58918c0.52985,1.25124 0.51636,1.23769 1.76754,1.76754c-0.28428,-1.39282 -0.37472,-1.48326 -1.76754,-1.76754z" fill="#f3fafb" id="svg_168"/>
     <path transform="rotate(1.9827016592025757 4800.756835937485,3913.8515624999945) " stroke="null" d="m4798.105241,3912.083797c1.05375,0.83752 1.59432,1.00007 2.9459,1.17836l0,2.35672l2.35673,0c-1.18072,-2.36243 -2.73498,-3.1269 -5.30263,-3.53508z" fill="#313641" id="svg_167"/>
     <path transform="rotate(1.9827016592025757 4853.477050781213,3915.086914062507) " stroke="null" d="m4852.887882,3913.90854c0.02003,1.37674 0.05774,1.57069 1.17836,2.35672l0,-2.35672l-1.17836,0z" fill="#c4a644" id="svg_166"/>
     <path transform="rotate(1.9827016592025757 4857.304687500017,3915.2192382812295) " stroke="null" d="m4855.831489,3914.041052c0.95683,1.20405 1.55721,1.7065 2.94591,2.35672c-0.75474,-1.4561 -1.3669,-1.91849 -2.94591,-2.35672z" fill="#313641" id="svg_165"/>
     <path transform="rotate(1.9827016592025757 4759.847167968791,3913.614257812508) " stroke="null" d="m4759.7922,3911.846643c-0.37931,1.24076 -0.53374,2.236 -0.58918,3.53508c1.58778,-1.05581 1.61512,-1.9549 0.58918,-3.53508z" fill="#c4a644" id="svg_164"/>
     <path transform="rotate(1.9827016592025757 4808.8481445312345,3927.0437011718686) " stroke="null" d="m4759.356907,3914.728359l0,1.76754c0.41013,-0.91541 0.41013,-0.85213 0,-1.76754m7.65935,0.58918c-0.17687,3.2217 -1.44579,4.76412 -4.12427,6.48099l0,1.17836c2.63641,1.32519 5.61042,2.84062 7.65936,0c3.08294,1.84161 9.71459,3.34166 7.65935,8.24854c2.10384,1.60363 3.84269,2.23411 6.48099,2.35672l0,1.17836l-2.94591,0l0,2.35673l3.53509,-1.17836l-1.17836,3.53508c6.00793,-2.47751 10.30318,-7.20639 15.3187,-11.19444l-1.17836,-1.76754c0.96331,0.32116 0.85725,0.21493 1.17836,1.17836c1.25613,-0.4575 1.63262,-0.66589 2.35672,-1.76754c-2.62716,-0.48772 -5.75559,-0.16191 -8.1958,-1.2493c-5.644,-2.51504 -10.40016,-6.96058 -16.54979,-8.17759c0.3211,-0.96337 0.21499,-0.85726 1.17836,-1.17837c-3.41666,-1.43365 -7.61764,-0.28227 -11.19444,0m90.14468,0l0,1.17837l1.17836,0l0,-1.17837l-1.17836,0m-51.65172,2.16035c-0.03241,0.0327 -0.0654,0.65464 0.19678,0.39275c0.03241,-0.03276 0.0654,-0.65458 -0.19678,-0.39275z" fill="#f3fafb" id="svg_163"/>
     <path transform="rotate(1.9827016592025757 4858.90771484375,3919.990966796899) " stroke="null" d="m4858.024089,3918.812808c0.403,1.30145 0.63631,1.5928 1.76754,2.35673c-0.45779,-1.25602 -0.66577,-1.6325 -1.76754,-2.35673z" fill="#313641" id="svg_162"/>
     <path transform="rotate(1.9827016592025757 4787.3447265625155,3918.103271484377) " stroke="null" d="m4785.577306,3916.924948c0.86739,1.65825 1.6956,2.08811 3.53508,2.35672l0,-1.17836c-1.27987,-0.27321 -2.33215,-0.65134 -3.53508,-1.17836z" fill="#f3fafb" id="svg_161"/>
     <path transform="rotate(1.9827016592025757 4826.582519531222,3922.114746093768) " stroke="null" d="m4860.287984,3920.641608l-0.58918,2.9459c1.10707,-0.95635 1.12887,-1.59055 0.58918,-2.9459m-67.7558,0.58918c0.95895,1.02724 1.58902,1.40408 2.9459,1.76754c-0.85213,-1.34492 -1.3613,-1.5215 -2.9459,-1.76754z" fill="#313641" id="svg_160"/>
     <path transform="rotate(1.9827016592025757 4792.5322265625155,3921.5253906250077) " stroke="null" d="m4792.335818,3921.427111c-0.26195,0.26195 0.36004,0.22913 0.39274,0.19643c0.2619,-0.26189 -0.36004,-0.22913 -0.39274,-0.19643z" fill="#f3fafb" id="svg_159"/>
     <path transform="rotate(1.9827016592025757 4754.694335937519,3924.6367187500023) " stroke="null" d="m4753.515945,3921.10185l0.58918,7.07017l1.76755,-0.58918c-0.62689,-2.13366 -0.92531,-4.27456 -1.17837,-6.48099l-1.17836,0z" fill="#c4a644" id="svg_158"/>
     <path transform="rotate(1.9827016592025757 4857.874023437521,3929.682861328131) " stroke="null" d="m4858.866519,3924.674657c-0.31227,1.9539 -0.64928,3.08154 -2.35672,4.12427c0.13551,2.03303 -0.46074,3.87115 -0.58919,5.89181c3.51329,-1.51602 5.05753,-6.74506 2.94591,-10.01608z" fill="#313641" id="svg_157"/>
     <path transform="rotate(1.9827016592025757 4757.953613281271,3924.160400390631) " stroke="null" d="m4757.069469,3924.749414c0.9309,-0.40276 1.04709,-0.47417 1.76754,-1.17836c-1.2328,0.23903 -1.19003,0.12767 -1.76754,1.17836z" fill="#f3fafb" id="svg_156"/>
     <path transform="rotate(1.9827016592025757 4819.26171875005,3932.7675781250105) " stroke="null" d="m4809.834662,3929.232415l0,1.76755l1.17836,0l0,-1.76755l-1.17836,0m-6.48099,1.17836l0,1.17837l1.76754,0l0,-1.17837l-1.76754,0m2.9459,0.58919l0,1.76754l1.76754,0l0,-1.76754l-1.76754,0m6.48099,0c1.82882,2.68377 6.94526,6.05736 10.01608,4.12426c0.72056,0.70407 0.83663,0.77536 1.76754,1.17836l-2.35673,-3.53508c-1.61376,0.61893 -2.9783,1.06565 -4.71344,1.17836l0,-2.35672l-2.94591,0.58918c-0.57739,-1.05069 -0.53497,-0.93933 -1.76754,-1.17836m20.03215,0.58918c0.77418,0.95323 1.10589,0.99766 2.35672,1.17836c-0.9091,-0.74632 -1.20664,-0.87741 -2.35672,-1.17836z" fill="#313641" id="svg_155"/>
     <path transform="rotate(1.9827016592025757 4754.753906249995,3931.4187011718573) " stroke="null" d="m4753.870527,3929.9457c0.38179,1.41026 0.60827,2.08346 1.76755,2.9459c-0.19673,-1.6447 -0.26991,-2.19711 -1.76755,-2.9459z" fill="#c4a644" id="svg_154"/>
     <path transform="rotate(1.9827016592025757 4798.225585937503,3935.8713378906314) " stroke="null" d="m4795.574348,3931.452385c-0.8542,0.94716 -1.20865,1.21624 -2.35673,1.76754l0.58918,4.71345c2.56653,0.19619 4.03925,1.94783 6.48099,2.35672c-0.38297,-0.76593 -0.08661,-0.58918 -1.17836,-0.58918c1.9278,-0.72175 3.11794,-1.11178 4.12427,-2.9459c-1.61789,-0.45014 -2.50638,-0.45014 -4.12427,0c-0.18029,-2.68366 -0.85231,-4.47448 -3.53509,-5.30263l0.00001,0z" fill="#313641" id="svg_153"/>
     <path transform="rotate(1.9827016592025757 4812.187500000016,3932.756835937524) " stroke="null" d="m4810.419983,3932.522748c1.209,0.51506 2.20766,0.56137 3.53508,0.58918c-1.32448,-0.76682 -2.02325,-0.82132 -3.53508,-0.58918z" fill="#f3fafb" id="svg_152"/>
     <path transform="rotate(1.9827016592025757 4843.57763671876,3942.747070312507) " stroke="null" d="m4836.017097,3935.382291l-4.12427,0c0.72234,1.19898 1.00338,1.37044 2.35672,1.76754c-0.58093,0.8714 -0.58918,0.70879 -0.58918,1.76755c1.14714,1.3068 1.26969,1.92308 0.58918,3.53508c2.88404,2.40857 5.59192,4.01115 9.4269,4.12427l0,2.35672c2.12871,0.55619 2.9789,1.40638 3.53508,3.53509l4.71345,0c0.88554,-3.91865 6.67306,-12.11003 0.58918,-14.14034c0.32228,1.10471 0.65399,1.91778 1.17836,2.9459c-4.61446,-2.47044 -11.22036,-4.34521 -14.72952,-8.24853c-1.72983,0.36924 -2.36438,0.67597 -2.9459,2.35672z" fill="#313641" id="svg_151"/>
     <path transform="rotate(1.9827016592025757 4799.819824218754,3932.3891601562536) " stroke="null" d="m4799.623835,3932.291002c-0.26218,0.26189 0.35999,0.22913 0.3924,0.19644c0.26218,-0.2619 -0.35999,-0.22914 -0.3924,-0.19644z" fill="#f3fafb" id="svg_150"/>
     <path transform="rotate(1.9827016592025757 4809.230468749981,3933.009521484354) " stroke="null" d="m4808.641915,3932.420601l0,1.17836l1.17837,0l0,-1.17836l-1.17837,0z" fill="#313641" id="svg_149"/>
     <path transform="rotate(1.9827016592025757 4860.646972656293,3935.9687499999927) " stroke="null" d="m4860.418238,3934.201258c-0.69936,1.39323 -0.87729,2.01187 -0.58918,3.53508c0.76181,-1.13299 1.26203,-2.26233 1.76754,-3.53508l-1.17836,0z" fill="#c4a644" id="svg_148"/>
     <path transform="rotate(1.9827016592025757 4816.687500000058,3934.2395019531186) " stroke="null" d="m4809.782197,3935.036054l4.12426,-0.58918c-1.69802,-0.96419 -2.93824,-1.03831 -4.12426,0.58918m13.35496,-1.57117c-0.26219,0.26189 0.35999,0.22914 0.39239,0.19644c0.26219,-0.26189 -0.35999,-0.22914 -0.39239,-0.19644z" fill="#313641" id="svg_147"/>
     <path transform="rotate(1.9827016592025757 4815.914062499987,3935.809326171873) " stroke="null" d="m4812.673319,3934.421051l0.58918,2.94591l5.89181,0c-1.53953,-0.64693 -3.04312,-0.58506 -4.71345,-0.58919l0,-1.76754l2.94591,0c-1.61377,-0.92053 -2.88993,-0.84565 -4.71345,-0.58918z" fill="#f3fafb" id="svg_146"/>
     <path transform="rotate(1.9827016592025757 4815.972656249965,3934.12744140625) " stroke="null" d="m4815.677451,3933.832879l0.58919,0.58918l-0.58919,-0.58918z" fill="#c4a644" id="svg_145"/>
     <path transform="rotate(1.9827016592025757 4843.352539062532,3935.075195312518) " stroke="null" d="m4843.156359,3934.977106c-0.26219,0.2619 0.35999,0.22914 0.39239,0.19644c0.26219,-0.26189 -0.35999,-0.22913 -0.39239,-0.19644z" fill="#f3fafb" id="svg_144"/>
     <path transform="rotate(1.9827016592025757 4856.601562499995,3935.533935546869) " stroke="null" d="m4856.306602,3935.239393l0.58918,0.58918l-0.58918,-0.58918z" fill="#313641" id="svg_143"/>
     <path transform="rotate(1.9827016592025757 4845.971679687529,3936.0502929687373) " stroke="null" d="m4845.087935,3935.461118l0,1.17836l1.76754,0l0,-1.17836l-1.76754,0z" fill="#f3fafb" id="svg_142"/>
     <path transform="rotate(1.9827016592025757 4786.479492187532,3934.5803222656273) " stroke="null" d="m4786.38145,3934.384105c-0.0327,0.03241 -0.06545,0.65459 0.19644,0.3924c0.03276,-0.03241 0.06546,-0.65458 -0.19644,-0.3924z" fill="#c4a644" id="svg_141"/>
     <path transform="rotate(1.9827016592025757 4807.657226562486,3935.903076171863) " stroke="null" d="m4805.59497,3935.313786c0.7353,0.40359 0.91205,0.4413 1.76754,0.58918c-0.7353,-0.40359 -0.91264,-0.44129 -1.76754,-0.58918m6.48099,0l0.58918,0.58918l-0.58918,-0.58918m-9.42689,0.58918c0.73529,0.40359 0.91205,0.4413 1.76754,0.58918c-0.7353,-0.40358 -0.91205,-0.44129 -1.76754,-0.58918z" fill="#313641" id="svg_140"/>
     <path transform="rotate(1.9827016592025757 4849.433593750006,3938.233398437495) " stroke="null" d="m4848.549549,3937.349732c0.52968,1.25142 0.51613,1.23787 1.76755,1.76755c-0.52968,-1.25142 -0.51612,-1.23787 -1.76755,-1.76755z" fill="#f3fafb" id="svg_139"/>
     <path transform="rotate(1.9827016592025757 4855.595703125008,3939.036376953116) " stroke="null" d="m4854.417273,3937.563419c0.50552,1.15598 0.96272,1.98495 1.76755,2.94591l0.58918,-2.35673l-2.35673,-0.58918z" fill="#313641" id="svg_138"/>
     <path transform="rotate(1.9827016592025757 4756.083496093751,3935.591308593763) " stroke="null" d="m4755.494505,3934.707638l0.58918,1.76755c0.40347,-0.7353 0.44118,-0.91205 0.58918,-1.76755l-1.17836,0z" fill="#c4a644" id="svg_137"/>
     <path transform="rotate(1.9827016592025757 4825.150878906277,3938.27685546876) " stroke="null" d="m4820.252828,3938.866363c-0.12255,-0.97863 -0.29164,-0.90734 0.58918,-1.17837c-1.39753,-0.72999 -2.01264,0.37885 -0.58918,1.17837m8.24853,-1.76755c0.49433,1.54719 0.80954,1.86241 2.35673,2.35673l0,-2.35673l-2.35673,0m-7.65935,0.58918l0.58918,0.58919l-0.58918,-0.58919m1.17836,0.58919l0.58919,0.58918l-0.58919,-0.58918z" fill="#313641" id="svg_136"/>
     <path transform="rotate(1.9827016592025757 4756.916015625002,3937.09423828124) " stroke="null" d="m4756.817738,3936.897863c-0.0327,0.03241 -0.06546,0.65458 0.19643,0.39239c0.0327,-0.0324 0.06546,-0.65458 -0.19643,-0.39239z" fill="#c4a644" id="svg_135"/>
     <path transform="rotate(1.9827016592025757 4823.737792968701,3939.6977539062595) " stroke="null" d="m4822.559548,3939.407514c0.88731,0.40241 1.36396,0.48666 2.35673,0.58918c-1.02223,-0.61864 -1.13771,-0.61628 -2.35673,-0.58918z" fill="#313641" id="svg_134"/>
     <path transform="rotate(1.9827016592025757 4782.251464843815,3940.0344238281177) " stroke="null" d="m4788.350568,3937.972369l0,4.12426c2.63052,-0.44011 2.7371,-1.67091 2.35673,-4.12426l-2.35673,0m-31.03021,0.98216c-0.0327,0.03241 -0.06546,0.65458 0.19643,0.3924c0.0327,-0.03241 0.06546,-0.65458 -0.19643,-0.3924m45.75974,1.96374l4.12426,-1.76754c-1.96433,-0.67579 -3.11323,0.03535 -4.12426,1.76754z" fill="#c4a644" id="svg_133"/>
     <path transform="rotate(1.9827016592025757 4821.950683593753,3940.2299804687427) " stroke="null" d="m4821.754694,3940.131384c-0.26219,0.26218 0.35999,0.22919 0.39239,0.19678c0.26219,-0.26218 -0.35999,-0.22919 -0.39239,-0.19678z" fill="#f3fafb" id="svg_132"/>
     <path transform="rotate(1.9827016592025757 4802.7832031250255,3940.4506835937536) " stroke="null" d="m4779.510751,3939.861342l0,1.17836l1.76754,0l0,-1.17836l-1.76754,0m45.95611,0l0.58918,0.58918l-0.58918,-0.58918z" fill="#313641" id="svg_131"/>
     <path transform="rotate(1.9827016592025757 4856.062011718777,3942.58959960938) " stroke="null" d="m4855.472972,3941.705946c0.23921,1.23257 0.12786,1.19015 1.17837,1.76754c-0.403,-0.9309 -0.47429,-1.04697 -1.17837,-1.76754z" fill="#c4a644" id="svg_130"/>
     <path transform="rotate(1.9827016592025757 4795.74755859376,3941.091308593743) " stroke="null" d="m4795.981449,3940.207488c-0.58076,0.8714 -0.58918,0.70879 -0.58918,1.76754c0.75957,-0.85019 0.82538,-0.72705 0.58918,-1.76754z" fill="#313641" id="svg_129"/>
     <path transform="rotate(1.9827016592025757 4780.966308593767,3940.579833984385) " stroke="null" d="m4780.671585,3940.284965l0.58918,0.58918l-0.58918,-0.58918z" fill="#f3fafb" id="svg_128"/>
     <path transform="rotate(1.9827016592025757 4789.798828125009,3940.8854980468695) " stroke="null" d="m4788.914834,3940.59072c0.73553,0.40359 0.91228,0.4413 1.76754,0.58918c-0.73548,-0.40359 -0.91235,-0.44129 -1.76754,-0.58918z" fill="#313641" id="svg_127"/>
     <path transform="rotate(1.9827016592025757 4806.939941406244,3944.1315917968604) " stroke="null" d="m4758.764558,3941.774888l0.58918,2.35673c0.44254,-1.20547 0.38627,-1.52952 -0.58918,-2.35673m18.06823,0.1962c-0.26183,0.26218 0.36005,0.22919 0.39275,0.19679c0.26189,-0.26219 -0.35999,-0.2292 -0.39275,-0.19679m25.53115,-0.1962l0.58919,0.58918l-0.58919,-0.58918m52.4371,0l0,2.35673c0.41832,-1.03696 0.41832,-1.31977 0,-2.35673m-80.71778,1.17836l0,1.17837c1.47384,0.31815 2.63388,0.74413 4.12427,0.58918c-1.33008,-1.06642 -2.43479,-1.53835 -4.12427,-1.76755m-14.14034,1.17837l0.58918,2.35672c0.32582,-1.18308 0.17852,-1.37397 -0.58918,-2.35672z" fill="#c4a644" id="svg_126"/>
     <path transform="rotate(1.9827016592025757 4835.615234374992,3945.713867187497) " stroke="null" d="m4834.142136,3945.124667c0.90734,1.06229 1.53011,1.07937 2.94591,1.17836c-0.97097,-0.54441 -1.87065,-0.85373 -2.94591,-1.17836z" fill="#313641" id="svg_125"/>
     <path transform="rotate(1.9827016592025757 4807.470703125026,3947.26220703124) " stroke="null" d="m4854.300064,3944.544849c-0.0324,0.0324 -0.0654,0.65458 0.19679,0.39239c0.0324,-0.0324 0.0654,-0.65458 -0.19679,-0.39239m-0.58918,1.17836c-0.03241,0.03241 -0.0654,0.65458 0.19679,0.39239c0.0324,-0.0324 0.06539,-0.65458 -0.19679,-0.39239m-93.28678,1.96374l1.76755,0l-0.58918,-1.17836c-0.96343,0.3211 -0.8572,0.21505 -1.17837,1.17836m92.6976,-0.78538c-0.03241,0.03241 -0.0654,0.65458 0.19679,0.3924c0.0324,-0.03241 0.06539,-0.65458 -0.19679,-0.3924m-90.93005,0.78538l0,2.35672c1.06812,-0.91676 1.06812,-1.43995 0,-2.35672z" fill="#c4a644" id="svg_124"/>
     <path transform="rotate(1.9827016592025757 4791.594238281237,3948.6113281249845) " stroke="null" d="m4791.398139,3948.513025c-0.26189,0.26218 0.36004,0.22919 0.39274,0.19679c0.2619,-0.26219 -0.36004,-0.22919 -0.39274,-0.19679z" fill="#f3fafb" id="svg_123"/>
     <path transform="rotate(1.9827016592025757 4807.867675781244,3955.364990234379) " stroke="null" d="m4851.467042,3948.883883l0,2.35673l1.17836,0l0,-2.35673l-1.17836,0m-88.37713,1.17836l0,3.53509l2.35672,0c-0.54281,2.85163 1.06766,3.72127 3.53509,4.71345c-0.75062,-3.01249 -3.2491,-6.63595 -5.89181,-8.24854m2.9459,1.17837l0.58918,1.17836c0.96337,-0.32111 0.85726,-0.21505 1.17836,-1.17836l-1.76754,0m18.26461,0l0,1.17836l2.35672,0l0,-1.17836l-2.35672,0m62.45317,0c1.53364,0.91971 2.93294,1.09705 4.71345,1.17836l0,-1.17836l-4.71345,0m-63.63153,1.17836c0.32116,0.96331 0.21493,0.85726 1.17836,1.17836l0,-1.17836l-1.17836,0m-2.35673,2.35672c1.61347,-0.12431 2.01618,-0.17852 2.35673,-1.76754c-1.25596,0.4572 -1.63251,0.66577 -2.35673,1.76754m68.34498,-1.76754c0.7353,0.40359 0.91206,0.4413 1.76755,0.58918c-0.7353,-0.40359 -0.91205,-0.4413 -1.76755,-0.58918m-69.52334,1.76754l0,1.17836l1.17836,0l0,-1.17836l-1.17836,0m-1.17836,1.17836c0.01979,1.37692 0.05756,1.57076 1.17836,2.35673l0,-2.35673l-1.17836,0m-1.17836,1.17837l0.58918,0.58918l-0.58918,-0.58918m-1.76755,1.17836c0.38285,0.76593 0.0865,0.58918 1.17837,0.58918c-1.79164,0.53026 -3.43546,0.58447 -5.30263,0.58918c-0.40277,0.93091 -0.47418,1.04697 -1.17836,1.76754c1.04232,0.45898 1.78869,0.53734 2.9459,0.58918c0,-1.05875 -0.00843,-0.89614 -0.58918,-1.76754l4.12426,1.17836l1.76755,-2.9459c-1.08993,-0.11902 -1.85598,-0.11902 -2.94591,0m-5.89181,0l0,1.76754c0.41013,-0.91558 0.41013,-0.85195 0,-1.76754m0.58919,1.76754l0.58918,0.58918l-0.58918,-0.58918z" fill="#c4a644" id="svg_122"/>
     <path transform="rotate(1.9827016592025757 4772.953613281206,3959.1672363281205) " stroke="null" d="m4772.757165,3959.068847c-0.26189,0.26218 0.36005,0.22919 0.39275,0.19678c0.26189,-0.26218 -0.36005,-0.22919 -0.39275,-0.19678z" fill="#313641" id="svg_121"/>
    </g>
   </g>
  </g>
 </g>
</svg>